<?xml version="1.0" encoding="UTF-8"?>
<svg id="Layer_1" data-name="Layer 1" xmlns="http://www.w3.org/2000/svg" viewBox="0 0 1080 1080">
  <defs>
    <style>
      .cls-1 {
        fill: #2f7c49;
      }

      .cls-1, .cls-2, .cls-3, .cls-4, .cls-5 {
        stroke-width: 0px;
      }

      .cls-3, .cls-4 {
        fill: #fff;
      }

      .cls-4 {
        fill-rule: evenodd;
      }

      .cls-5 {
        fill: #fff;
      }
    </style>
  </defs>
  <path class="cls-4" d="M294.27,589.86c1.15-.95,7.2-4.85,8.76-5.26v25.07h-8.68c0-3.15-.02-6.4-.05-9.58-.02-3.58-.05-7.07-.04-10.23Z"/>
  <g>
    <rect class="cls-1" x="213.39" y="427.13" width="225.73" height="225.73" rx="57.21" ry="57.21"/>
    <path class="cls-3" d="M376.84,623.34h-101.18l.93-2.58c.64-1.84,1.76-3.57,1.42-5.32h96.51c-.04.2-.05.4-.05.62,0,.93,1.44,4.74,2.38,7.27Z"/>
    <path class="cls-4" d="M330.31,551.33v59.53s-7.41,0-7.41,0c-.44-18.35-1.98-52.83-1.34-54.24.86-.85,7.56-4.92,8.75-5.3Z"/>
    <path class="cls-4" d="M357.56,599.51v11.35s-8.8,0-8.8,0v-3.75s.04-30.51.04-30.51c1.24-1.1,7.11-4.54,8.75-5.28v28.2Z"/>
    <path class="cls-4" d="M417.22,563.47c-.37-.09-.65-.28-.92-.46-.37-.1-.65-.19-1.02-.37-3.5-1.75-2.03-4.7-1.1-7.47.18-.73.46-1.29.64-2.03.65-1.93,1.38-3.87,1.94-5.89l5.16-15.86c.37-1.19,1.01-2.76,1.29-3.96-.65,0-1.29.19-1.84.37-.65.18-1.2.28-1.85.37-1.2.28-2.58.55-3.78.83l-18.61,3.96c-.56.09-1.29.28-1.85.37-2.3.46-4.14.92-5.43-2.3-.56-1.48-1.2-2.86-1.85-4.24-.55-1.48-1.19-2.86-1.75-4.24-.55-1.39-1.1-2.86-1.84-4.24-.37.27-1.75,1.75-2.21,2.21l-3.04,3.32c-.56.73-1.94,2.12-2.59,2.76l-6.17,6.64c-.55.74-1.93,2.02-2.58,2.76q-.18.28-.37.46l-2.21,2.4c-.37.37-.55.55-.83.92l-1.75,1.85c-1.01,1.01-1.75,1.93-3.32,2.11-1.93.28-3.68-1.47-3.68-3.41,0-.55.18-1.29.27-1.84.1-.55.19-1.11.37-1.75,3.41-17.33,6.54-34.56,9.95-51.79.19-.56.37-1.29.37-1.94l-4.7,2.77c-3.96,2.3-7.92,4.42-11.79,6.72-1.02.65-1.85,1.11-3.23,1.11-2.03,0-2.86-2.03-3.59-3.5l-15.76-30.97c-.28-.55-1.02-1.93-1.2-2.48h-.19c-.09.55-.82,1.84-1.1,2.39l-1.84,3.5c-.19.46-.37.83-.65,1.2l-8.48,16.77c-.37.74-.74,1.57-1.2,2.4-2.93,6.42-6,10.69-7.28,10.69-.59,0-1.17-.13-1.17-.13-.72-.18-1.28-.51-1.96-.88-3.87-2.4-7.92-4.52-11.79-6.82l-4.8-2.77c0,.92,8.94,46.36,9.68,50.14.18.92,1.38,6.36,1.38,7.18,0,1.94-1.75,3.69-3.69,3.51-.46-.1-1.1-.28-1.38-.46-.28-.1-.83-.56-1.01-.74l-14.01-15.02c-.37-.28-.46-.56-.83-.93l-1.29-1.38c-.09-.18-.27-.27-.46-.46l-5.16-5.62c-.28-.28-.65-.74-1.02-.92-1.38,2.58-5.34,13.45-6.45,14.47-1.93,1.57-4.05.55-6.17.18-8.02-1.57-16.13-3.5-24.15-5.16-.55-.09-1.38-.37-1.93-.37.27,1.39,3.22,9.95,3.78,11.8.46,1.38.92,2.58,1.29,4.05.64,2.12,1.93,5.63,2.58,7.84.46,1.38.83,2.67,1.29,3.96.27.64.46,1.38.64,2.03.65,2.02,1.02,3.41-.83,4.97-.73.65-2.58,1.3-3.59,1.75l-8.39,3.97c.37.55,2.49,2.12,3.23,2.67l8.2,6.63c.55.47,1.11.93,1.66,1.39.31.27.64.54.97.82,18.21-3.12,35.59-10.88,50.89-21.25,3.55-2.42,7.02-4.97,10.38-7.67,3.3-2.66,6.49-5.46,9.54-8.44l.22.19c-2.93,4.13-6.13,8.08-9.59,11.8-10.7,11.57-23.74,21.08-37.86,27.98-.65.32-3.23,1.49-3.8,1.76-1.77.74-3.64,1.55-5.44,2.21-1.37.52-2.8,1.03-4.24,1.51l2.2,1.78c4.42,3.59,8.76,7.19,13.18,10.69,1.47,1.1,11.06,8.85,11.52,9.4.43.53.67,1.06.77,1.59h11.43v-15.46s.02-7.12.02-7.12c1.18-1.06,12.78-8.15,13.59-8.17,1.49-.02,11.38,7.42,13.63,7.79l-.02-33.68c.72-1.26,5.11-3.58,6.64-4.53,9-5.6,5.37-5.04,14.13.09,1.33.77,6.02,3.2,6.52,4.44l-.04,19.32c2.68-.84,12.52-7.96,13.81-7.83.38.04,6.82,3.87,10.71,6.28,1.43.89,2.51,1.59,2.81,1.83l-.02,37.04h3.3c.31-1.76,1.93-2.53,3.17-3.53.28-.27.55-.46.83-.73.55-.37,1.02-.83,1.66-1.29,4.42-3.51,8.76-7.1,13.18-10.69,8.85-7.19,17.6-14.38,26.45-21.48.55-.37,1.01-.83,1.66-1.29l3.32-2.67c.46-.37,1.19-.83,1.56-1.38l-9.12-4.33ZM354.31,504.41c-.04.08-.08.15-.13.23-.08.15-.17.31-.26.46-.05.08-.09.15-.14.23s-.1.15-.15.23-.1.15-.15.23c-.05.07-.1.15-.15.23-.05.07-.11.15-.16.23-.06.07-.11.15-.17.22-.05.08-.11.16-.17.23-.06.08-.11.16-.17.23-.06.08-.12.15-.18.23-.06.08-.12.15-.18.23-.06.07-.13.15-.19.23-.06.07-.13.15-.19.22-.06.08-.13.16-.19.23-.14.16-.27.31-.4.46-.07.08-.14.15-.21.23s-.14.15-.21.23c-.14.15-.28.31-.42.46-.07.08-.15.15-.22.23-.07.08-.14.15-.22.23-.07.08-.15.16-.22.23-.07.08-.15.16-.22.23-.15.16-.31.31-.46.47-.08.08-.15.15-.23.23-.08.08-.15.16-.23.24-.16.15-.31.31-.47.47-.08.08-.16.15-.24.23-.08.08-.16.16-.24.24-.07.08-.15.16-.23.24l-.24.24c-.08.08-.16.16-.24.24-.08.08-.17.16-.25.24-.08.08-.16.16-.24.24h-.01s-.58.54-.58.54l6.1,27.96c.04.14,0,.28-.11.39l-2.35,2.35c-.1.1-.22.14-.36.12-.14-.02-.25-.09-.31-.21l-12.57-21.76-12.37,11.41-.27,10.48c-.01.12-.05.22-.13.3l-1.17,1.17c-.11.11-.26.15-.41.12-.16-.03-.27-.13-.33-.28l-3.4-8.74s-.03.02-.05.03c-.03.03-.06.05-.09.07-.03.02-.06.05-.09.07-.03.02-.06.04-.09.06-.03.02-.06.05-.1.07-.03.02-.06.04-.09.06-.03.02-.06.04-.09.06-.03,0-.06.03-.09.05-.07.04-.13.08-.19.11-.03.02-.06.03-.09.05-.13.06-.25.12-.38.17-.03.02-.06.03-.1.04-.06.03-.12.05-.19.07-.95.31-1.6.28-1.93-.08-.29-.31-.34-.89-.12-1.73.02-.06.04-.12.06-.19.02-.06.04-.13.06-.19.02-.03.03-.06.04-.09.05-.13.11-.25.18-.38,0-.03.03-.06.05-.09.03-.06.07-.13.1-.19.02-.03.04-.06.06-.09.02-.03.04-.06.06-.09.02-.04.04-.07.06-.1.02-.03.04-.06.06-.09.02-.03.05-.06.07-.09.02-.03.04-.05.07-.09l-8.37-3.26c-.14-.06-.24-.18-.28-.33-.03-.16.02-.3.13-.41l1.16-1.17c.09-.09.19-.13.31-.13l9.92-.25,11.68-12.68-21.75-12.56c-.12-.07-.2-.18-.21-.31-.02-.14.02-.27.12-.36l2.35-2.35c.1-.11.24-.15.39-.12l27.96,6.09.52-.56h.02v-.02c.08-.08.16-.16.24-.24l.24-.24c.08-.08.16-.16.24-.24l.24-.24c.08-.08.16-.16.24-.24.07-.08.15-.16.23-.24.08-.08.16-.15.24-.23.16-.16.31-.32.47-.47.08-.08.16-.16.23-.23.08-.08.16-.16.24-.23.15-.16.31-.31.46-.46.08-.07.16-.15.23-.22.08-.08.16-.15.24-.23.07-.07.15-.14.23-.21.07-.08.15-.15.23-.22.15-.14.3-.29.46-.43.07-.07.15-.14.23-.2.07-.07.15-.14.23-.21.15-.13.3-.27.45-.4.08-.06.16-.13.23-.19.08-.07.15-.13.23-.19.08-.07.15-.13.23-.19.07-.06.15-.12.23-.18.07-.06.15-.12.23-.18.07-.06.15-.12.22-.18.08-.05.16-.11.23-.17.08-.05.15-.11.23-.16.08-.06.15-.11.23-.16s.15-.11.23-.16c.07-.05.15-.1.23-.15.07-.05.15-.1.23-.14.07-.05.15-.1.23-.14.15-.09.3-.18.46-.27.07-.04.15-.08.23-.12,5.72-2.98,8.85.15,5.87,5.87Z"/>
  </g>
  <g>
    <path class="cls-2" d="M468.86,571.69h1.6l6.54,12.27,6.54-12.27h1.6v17.14h-1.6v-13.75l-6.54,12.27-6.54-12.27v13.75h-1.6v-17.14Z"/>
    <path class="cls-2" d="M506,584.79h-9.83l-1.77,4.04h-1.75l7.56-17.14h1.75l7.56,17.14h-1.75l-1.77-4.04ZM505.31,583.24l-4.22-9.58-4.22,9.58h8.43Z"/>
    <path class="cls-2" d="M517.05,571.69h1.6l10.98,14.54v-14.54h1.6v17.14h-1.6l-10.98-14.54v14.54h-1.6v-17.14Z"/>
    <path class="cls-2" d="M539.92,571.69h1.6v17.14h-1.6v-17.14Z"/>
    <path class="cls-2" d="M554.94,573.22h-5.94v-1.52h13.47v1.52h-5.94v15.62h-1.6v-15.62Z"/>
    <path class="cls-2" d="M568.2,580.25c0-4.82,4.04-8.86,8.78-8.86s8.76,4.04,8.76,8.86-3.99,8.88-8.76,8.88-8.78-4.07-8.78-8.88ZM584.12,580.25c0-3.99-3.24-7.36-7.13-7.36s-7.16,3.37-7.16,7.36,3.27,7.38,7.16,7.38,7.13-3.37,7.13-7.38Z"/>
    <path class="cls-2" d="M593.77,571.69h7.63c2.77,0,4.71,1.77,4.71,4.27,0,1.82-.95,3.07-2.44,3.82,1.92.87,3.12,2.5,3.12,4.37,0,2.74-2.12,4.69-5.09,4.69h-7.93v-17.14ZM601.15,579.13c1.97,0,3.34-1.25,3.34-2.99s-1.42-2.97-3.44-2.97h-5.69v5.96h5.79ZM601.35,587.36c2.25,0,3.82-1.42,3.82-3.39s-1.57-3.37-3.82-3.37h-5.99v6.76h5.99Z"/>
    <path class="cls-2" d="M614.57,571.69h1.6v17.14h-1.6v-17.14Z"/>
    <path class="cls-2" d="M635.3,586.39l1-1.25c1.5,1.5,3.44,2.5,5.81,2.5,2.72,0,4.29-1.5,4.29-3.24,0-1.87-1.57-2.72-4.82-3.47-3.62-.85-5.61-1.97-5.61-4.67s2.39-4.89,5.66-4.89c2.4,0,4.37.97,5.99,2.45l-1,1.25c-1.42-1.4-3.22-2.22-5.06-2.22-2.32,0-3.97,1.47-3.97,3.29,0,1.72,1.62,2.47,4.79,3.24,3.52.82,5.64,2.07,5.64,4.86s-2.17,4.87-5.96,4.87c-2.72,0-5.04-1.02-6.76-2.72Z"/>
    <path class="cls-2" d="M655.05,580.25c0-4.82,4.04-8.86,8.78-8.86s8.76,4.04,8.76,8.86-3.99,8.88-8.76,8.88-8.78-4.07-8.78-8.88ZM670.97,580.25c0-3.99-3.24-7.36-7.13-7.36s-7.16,3.37-7.16,7.36,3.27,7.38,7.16,7.38,7.13-3.37,7.13-7.38Z"/>
    <path class="cls-2" d="M679.57,580.25c0-4.82,4.04-8.86,8.78-8.86,2.37,0,4.57,1,6.16,2.62l-1.1,1.1c-1.3-1.35-3.12-2.22-5.06-2.22-3.89,0-7.16,3.37-7.16,7.36s3.27,7.38,7.16,7.38c1.95,0,3.77-.87,5.06-2.25l1.1,1.12c-1.6,1.6-3.79,2.62-6.16,2.62-4.74,0-8.78-4.07-8.78-8.88Z"/>
    <path class="cls-2" d="M701.59,571.69h1.6v17.14h-1.6v-17.14Z"/>
    <path class="cls-2" d="M713.14,573.22v6.11h9.38v1.55h-9.38v6.44h10.33v1.52h-11.95v-17.14h11.95v1.52h-10.33Z"/>
    <path class="cls-2" d="M736.29,573.22h-5.94v-1.52h13.47v1.52h-5.94v15.62h-1.6v-15.62Z"/>
    <path class="cls-2" d="M756.71,581.85l-6.94-10.15h2l5.76,8.58,5.81-8.58h1.95l-6.91,10.15v6.99h-1.67v-6.99Z"/>
    <path class="cls-2" d="M783.05,580.25c0-4.82,4.04-8.86,8.78-8.86s8.76,4.04,8.76,8.86-3.99,8.88-8.76,8.88-8.78-4.07-8.78-8.88ZM798.97,580.25c0-3.99-3.24-7.36-7.13-7.36s-7.16,3.37-7.16,7.36,3.27,7.38,7.16,7.38,7.13-3.37,7.13-7.38Z"/>
    <path class="cls-2" d="M809.86,573.22v6.11h9.48v1.55h-9.48v7.96h-1.62v-17.14h12.12v1.52h-10.5Z"/>
    <path class="cls-2" d="M468.49,601.62h1.6v17.14h-1.6v-17.14Z"/>
    <path class="cls-2" d="M478.79,601.62h1.6l6.54,12.27,6.54-12.27h1.6v17.14h-1.6v-13.75l-6.54,12.27-6.54-12.27v13.75h-1.6v-17.14Z"/>
    <path class="cls-2" d="M504.13,601.62h1.6l6.54,12.27,6.54-12.27h1.6v17.14h-1.6v-13.75l-6.54,12.27-6.54-12.27v13.75h-1.6v-17.14Z"/>
    <path class="cls-2" d="M529.1,601.62h1.6v17.14h-1.6v-17.14Z"/>
    <path class="cls-2" d="M546.91,609.91h6.86v6.56c-1.62,1.57-4.22,2.59-6.64,2.59-4.74,0-8.78-4.07-8.78-8.88s4.04-8.86,8.78-8.86c2.42,0,5.01,1,6.64,2.59l-1.1,1.12c-1.35-1.37-3.52-2.22-5.54-2.22-3.89,0-7.16,3.37-7.16,7.36s3.27,7.38,7.16,7.38c1.77,0,3.67-.65,5.04-1.75v-4.39h-5.26v-1.52Z"/>
    <path class="cls-2" d="M570.3,612.33l4.54,6.44h-1.85l-4.47-6.34h-4.96v6.34h-1.6v-17.14h7.04c3.52,0,6.19,2.25,6.19,5.41,0,2.77-2.02,4.82-4.89,5.29ZM563.56,610.9h5.16c2.87,0,4.87-1.5,4.87-3.87s-2-3.89-4.87-3.89h-5.16v7.76Z"/>
    <path class="cls-2" d="M594.64,614.72h-9.83l-1.77,4.04h-1.75l7.56-17.14h1.75l7.56,17.14h-1.75l-1.77-4.04ZM593.95,613.17l-4.22-9.58-4.22,9.58h8.43Z"/>
    <path class="cls-2" d="M608.86,603.15h-5.94v-1.52h13.47v1.52h-5.94v15.62h-1.6v-15.62Z"/>
    <path class="cls-2" d="M623.87,601.62h1.6v17.14h-1.6v-17.14Z"/>
    <path class="cls-2" d="M633.13,610.18c0-4.82,4.04-8.86,8.78-8.86s8.76,4.04,8.76,8.86-3.99,8.88-8.76,8.88-8.78-4.07-8.78-8.88ZM649.04,610.18c0-3.99-3.24-7.36-7.13-7.36s-7.16,3.37-7.16,7.36,3.27,7.38,7.16,7.38,7.13-3.37,7.13-7.38Z"/>
    <path class="cls-2" d="M658.69,601.62h1.6l10.98,14.54v-14.54h1.6v17.14h-1.6l-10.98-14.54v14.54h-1.6v-17.14Z"/>
  </g>
  <polygon class="cls-5" points="576.87 556.98 576.87 457.07 545.68 457.07 522.19 498.93 498.71 457.07 467.52 457.07 467.52 556.98 499.92 556.98 499.92 514.85 522.19 554.55 544.47 514.85 544.47 556.98 576.87 556.98"/>
  <path class="cls-5" d="M630.42,558.62c25.7,0,41.67-13.19,41.67-34.41s-18.73-27.26-37.91-31.34h0c-5.92-1.27-10.33-2.36-12.62-3.59-1.53-.82-1.78-1.37-1.78-2.73,0-2.03,2.49-3.24,6.67-3.24,8.22,0,17.15,3.16,25.13,8.9l2.39,1.72,16.57-23.4-2.14-1.72c-11.21-9-24.71-13.38-41.26-13.38-23.94,0-40.03,13.61-40.03,33.87,0,21.85,18.17,27.8,38.41,32.42l.64.15c8.78,2.03,12.18,2.9,13.1,3.98l.07.1c.07.1.22.34.22,1.15,0,3.3-5.71,3.65-8.17,3.65-10.24,0-20.09-3.66-29.28-10.88l-2.23-1.75-18.43,22.01,2.13,1.88c12.11,10.72,28.74,16.62,46.85,16.62Z"/>
  <path class="cls-5" d="M729.23,455.43c-29.34,0-54.13,23.6-54.13,51.53s24.79,51.67,54.13,51.67,54.13-23.66,54.13-51.67-24.79-51.53-54.13-51.53ZM729.23,528.68c-11.33,0-20.9-9.95-20.9-21.73s9.57-21.59,20.9-21.59,20.9,9.89,20.9,21.59-9.57,21.73-20.9,21.73Z"/>
  <rect class="cls-5" x="787.82" y="457.07" width="32.4" height="99.91"/>
</svg>